<?xml version="1.0" encoding="UTF-8"?>
<svg id="Final" xmlns="http://www.w3.org/2000/svg" version="1.1" viewBox="0 0 1700.8 561.5">
  <!-- Generator: Adobe Illustrator 29.5.1, SVG Export Plug-In . SVG Version: 2.1.0 Build 141)  -->
  <defs>
    <style>
      .st0 {
        fill: #b7029d;
      }

      .st1 {
        fill: #d6d6d6;
      }

      .st2 {
        font-size: 198.4px;
      }

      .st2, .st3, .st4 {
        fill: #0196b9;
      }

      .st2, .st4 {
        font-family: Quicksand-Bold, Quicksand;
        font-weight: 700;
      }

      .st4 {
        font-size: 170.1px;
      }

      .st5 {
        fill: #fff;
      }
    </style>
  </defs>
  <text class="st2" transform="translate(449.1 445.3)"><tspan x="0" y="0">Bridge to AI</tspan></text>
  <g>
    <path class="st1" d="M312.1,373.8c-4.5-11.3-13.5-22.9-23.1-30.5-.6-.5-1.3-1-1.9-1.5-.8-.7-1.6-1.4-2.3-2-30.7-26.6-76.6-34-115-22.3-28.3,10.2-52.1,29.1-65.7,56.3H35.7c64.2-133,275.4-133,339.6,0"/>
    <path class="st1" d="M47,214.6h0c6.2,0,11.3,5.1,11.3,11.3v136.6c0,6.2-5.1,11.3-11.3,11.3h-11.3v-147.9c0-6.2,5.1-11.3,11.3-11.3Z"/>
    <path class="st1" d="M364,214.6h0c6.2,0,11.3,5.1,11.3,11.3v147.9h-11.3c-6.2,0-11.3-5.1-11.3-11.3v-136.6c0-6.2,5.1-11.3,11.3-11.3Z"/>
    <path class="st0" d="M353,354.8"/>
    <path class="st1" d="M375.3,354.8c0-93.8-76-169.8-169.8-169.8S35.7,261.1,35.7,354.8l22.6-56.4s148.2-180.7,294.6,0"/>
    <rect class="st1" x="96.9" y="242.6" width="13.5" height="81.4"/>
    <rect class="st1" x="145.5" y="221" width="16" height="83.9"/>
    <rect class="st1" x="195.5" y="210.7" width="16" height="76.2"/>
    <rect class="st1" x="246.5" y="212.8" width="16" height="81"/>
    <rect class="st1" x="297.1" y="233.7" width="14.2" height="78.5"/>
    <path class="st3" d="M375.3,373.8c0,48.2-20.1,91.7-52.4,122.6-98-9.9-138-78.2-280.7-75.6-4.3-14.9-6.6-30.7-6.6-47"/>
    <path class="st3" d="M311.9,506.2c-129.5-20.9-128-67.2-264.8-71.3,24.5,63.6,86.2,108.7,158.5,108.7s77.2-14,106.3-37.4"/>
    <rect class="st5" x="238.2" y="400.2" width="39.2" height="15.4" rx="7.7" ry="7.7"/>
    <rect class="st5" x="282" y="446.6" width="30.1" height="9.6" rx="4.8" ry="4.8"/>
    <rect class="st5" x="308.5" y="393.1" width="44.5" height="13.5" rx="6.7" ry="6.7"/>
    <rect class="st5" x="75.2" y="397" width="70.3" height="12.4" rx="6.2" ry="6.2"/>
    <rect class="st5" x="171.5" y="415.6" width="48.5" height="12.9" rx="6.5" ry="6.5"/>
    <rect class="st5" x="104.1" y="479.5" width="53.3" height="11.7" rx="5.8" ry="5.8"/>
    <rect class="st5" x="188.5" y="509.2" width="52.7" height="9.9" rx="5" ry="5"/>
    <path class="st1" d="M145.9,131l-28.5-33.5h0c-1.3.3-2.6.4-4,.4-11.2,0-20.3-9.1-20.3-20.3s9.1-20.3,20.3-20.3,20.3,9.1,20.3,20.3-1,7.3-2.8,10.3l25.7,30.3h0c1.9-.7,3.9-1.1,6-1.1,9.4,0,17,7.6,17,17s-7.6,17-17,17-17-7.6-17-17,0-2.1.3-3.1h0Z"/>
    <rect class="st1" x="195.5" y="67.3" width="17" height="135.9"/>
    <path class="st1" d="M148.9,181.3h-29.3c-1.8,0-3.6-.7-4.9-2l-26.4-24.6h0c-2.8,1-5.8,1.4-9,1-9.2-1.1-16.5-8.6-17.5-17.8-1.2-12.6,9.3-23.1,21.9-21.9s16.9,8.5,17.8,17.8-.2,6.5-1.3,9.4h0s23.2,21.6,23.2,21.6h0s25.6,0,25.6,0h0c0,0,9.1,0,9.1,0,4.1,0,7.4,3.3,7.4,7.4v32.7h-16.4v-23.7h0Z"/>
    <circle class="st1" cx="204.1" cy="44.9" r="27"/>
    <line class="st1" x1="375.3" y1="373.8" x2="313.9" y2="373.8"/>
    <path class="st1" d="M313,160.5l-11.9,5.1c-2.7,1.2-4.4,3.8-4.4,6.8v10.1c0,4-3.3,7.3-7.3,7.3h-1.8c-4,0-7.3-3.3-7.3-7.3v-20.9c0-2.9,1.7-5.5,4.4-6.7l21.6-9.3h0c0-1.2,0-2.5,0-3.7,1.1-10.6,9.7-19.2,20.4-20.3s26.5,10.6,25.1,25.1-9.7,19.3-20.4,20.4-13.8-1.9-18.5-6.5Z"/>
    <path class="st1" d="M277.1,86.8c-1.4-2.8-2.2-5.9-2.2-9.2,0-11.2,9.1-20.3,20.3-20.3s20.3,9.1,20.3,20.3-9.1,20.3-20.3,20.3-3.6-.2-5.4-.7h0s-33.6,41.3-33.6,41.3h0s0,57.2,0,57.2h-16.4v-60.4c0-1.7.6-3.3,1.6-4.6l4.2-5.1,31.5-38.6h0Z"/>
  </g>
  <text class="st4" transform="translate(455.4 263.2)"><tspan x="0" y="0">The</tspan></text>
</svg>