<?xml version="1.0" encoding="UTF-8"?>
<svg id="Layer_1" xmlns="http://www.w3.org/2000/svg" version="1.1" viewBox="0 0 688 290">
  <!-- Generator: Adobe Illustrator 29.5.0, SVG Export Plug-In . SVG Version: 2.1.0 Build 137)  -->
  <defs>
    <style>
      .st0, .st1 {
        fill: #d6d6d6;
      }

      .st2 {
        font-size: 56.7px;
      }

      .st2, .st3, .st4 {
        isolation: isolate;
      }

      .st2, .st4 {
        fill: #049dbd;
        font-family: OpenSans-SemiBold, 'Open Sans';
        font-weight: 600;
      }

      .st4 {
        font-size: 99.2px;
      }

      .st1 {
        display: none;
      }
    </style>
  </defs>
  <g id="Layer_11" data-name="Layer_1">
    <g id="_x39_kanbl.tif">
      <g class="st3">
        <text class="st2" transform="translate(223.4 131.6)"><tspan x="0" y="0" xml:space="preserve">   </tspan></text>
        <text class="st4" transform="translate(267.6 131.6)"><tspan x="0" y="0">The AI</tspan></text>
        <text class="st4" transform="translate(223.4 225.1)"><tspan x="0" y="0">Explained</tspan></text>
      </g>
    </g>
  </g>
  <g id="Layer_2">
    <g id="_x32_mWz5G.tif">
      <g>
        <path class="st1" d="M3.2,93.4V2h234.9v259.1H3.2V100.8l.9,9.4c5.5,41.6,33.5,51.7,46.6,87.1,2.3,6.3,1.3,14.1,9.3,14.8,24.5,2.2,52.4-1.7,77.2,0,4.5-.8,7.2-5.2,4.7-9.3s-2.8-2.2-3-2.2h-17c.8-5.4-2.1-15.7,2.4-19.6,6.5-5.5,21.3,2.6,29.1-7.4.7-1,3.3-5.9,3.3-6.6v-32.8h13.7c1.6,0,6-4.5,4.4-6.8-3.7-10.2-8.8-19.9-12.3-30.1s-5.8-24.7-12.6-36.4c-8.4-14.4-22-24.9-38.9-27.1,2.9,21.4,1.3,43.2,1.7,64.8,7.6.7,13.7,0,14.9-8.8,1.1-8.7-4.2-7.1-4.9-13.2-1.9-15.9,19.5-14.1,17.4,0s-4.8,6.3-5,6.9c-.6,2.1.1,6-.5,9.2-2.2,11-11.5,14.6-21.9,13.4v34.5c0,3.2-2.6,10.2-4.3,13.1-3.9,6.7-16.4,14.4-16.4,22.6v24.5h-27.8c-2.5-4.9-3.8-10.4-6.1-15.5-13.4-30.1-40.2-41.5-43.3-79.6C6.3-.2,160.7-20.7,178.3,88.1c17.6,108.8-.2,13.3,3.1,15.2,15.3,8.8,5.8-28.8,3.9-34.6C152.7-30,8.7-10.9,3.2,93.4ZM104.5,138.6c1.5-9.6-1.1-22.8,0-32.8-7-.3-15.5-2.7-19.8,4.7-1.9,3.3-2.5,11.1-1.8,14.8.7,3.7,4.6,3.3,4.2,9.1s-12.3,9.7-15.2,2.7c-2.9-7.2,3.5-10.2,3.5-11v-14.5h-16.2c-.3,0-3.4,3.1-5.9,3.3-7.7.8-10.6-10.6-3.4-13.5,6.8-2.8,6.8,2,10.2,2.7s13.9.4,16.6,0,7.8-5.8,10.8-5.8h14.9c.3,0,1.3-.8,1.9-1,1-5-.6-10.4-.7-15.2-.3-11,1-23.4,0-34.1-1.8-20.3-26-15.2-37-5.4-5.7,5-4.2,4.3-10.9,8.2-10.1,5.9-16.8,14.1-17.7,26.3s.7,7.2.4,8-3.4,3.8-4.4,5.5c-5.6,10-4.7,23.6,3.1,32.2,1.3,1.5,5,3.7,5.4,4.5.8,1.6,1,6.2,1.9,8.9,9.8,28.9,55.9,28.5,59.9,2.3h.2ZM225.8,90.2c24.8-9.4,2.4-43.6-15.9-26.3-9.2,8.6-4.4,22.3,5.7,27.6.1,4.6,1.1,18.2-2.7,21.1-4.7,3.5-20.9-2.6-22.1,4.6-1.6,9.8,18.9,7.8,24.3,6,14.8-4.9,9.6-21,10.7-32.9h0ZM186.5,147.5c-11.2,1.8-17.4,15.8-10.6,25.1,12.4,17,37.1.5,27.6-16.8-3.2-5.8-10.5-9.4-17-8.3ZM134.9,231.8c2.4-3,1-9.7-3.4-9.8-21.3,1.9-46.5-2.4-67.3,0-8,.9-6.7,10.8,0,11.7,20.8-2,46.2,2.5,66.5,0,1.3-.2,3.5-1,4.3-1.9h-.1ZM72.2,244.6c-.8,5.6,5.8,10.8,10.4,13.1,7.6,3.7,21.6,3.9,29.4.5s14.4-9.2,11.3-13.7l-1.7-.8-49.3,1h-.1Z"/>
        <path class="st0" d="M3.2,93.4C8.7-10.9,152.7-30,185.2,68.6c1.9,5.8,11.4,43.4-3.9,34.6s-2.5-11.1-3.1-15.2C160.7-20.7,6.3-.2,14.8,105.4c3.1,38.1,29.9,49.5,43.3,79.6,2.3,5.1,3.6,10.6,6.1,15.5h27.8v-24.5c0-8.2,12.5-15.8,16.4-22.6s4.3-9.9,4.3-13.1v-34.5c10.4,1.2,19.6-2.4,21.9-13.4.7-3.2,0-7.1.5-9.2s4.4-3.2,5-6.9c2-14-19.3-15.8-17.4,0,.7,6.1,6,4.5,4.9,13.2-1.1,8.7-7.3,9.5-14.9,8.8-.4-21.6,1.2-43.3-1.7-64.8,16.8,2.2,30.4,12.8,38.9,27.1,6.8,11.7,8.3,23.9,12.6,36.4s8.6,19.9,12.3,30.1c1.2,4.4-1.8,6.7-4.4,6.8h-13.7v32.8c-.4,4-1.5,5.5-2.6,6.8-8.5,10-23.4,1.7-29.8,7.2s-1.7,14.1-2.4,19.6h17c5.6.4,5.2,5.3,5.2,5.6.2,4-.3,6.1-6.9,6H60c-8,0-7-8.5-9.3-14.8-13.1-35.3-41.1-45.4-46.6-87.1l-.9-9.4v-7.5.3Z"/>
        <path class="st0" d="M104.5,138.6c-4.1,26.1-50.1,26.6-59.9-2.3s-1.1-7.3-1.9-8.9-4.1-3.1-5.4-4.5c-7.9-8.7-8.7-22.2-3.1-32.2s4.1-4.9,4.4-5.5-.5-6-.4-8c.9-12.2,7.6-20.4,17.7-26.3s5.3-3.1,10.9-8.2c11-9.8,35.2-14.9,37,5.4.9,10.7-.3,23.1,0,34.1s1.8,10.2.7,15.2c-.6,0-1.6,1-1.9,1h-14.9c-3,0-7,5.3-10.8,5.8s-14.1.4-16.6,0-3.4-5.4-10.2-2.7c-7.1,2.9-4.2,14.2,3.4,13.5,2.5-.2,5.6-3.3,5.9-3.3h16.2v14.5c0,.8-6.5,3.8-3.5,11,2.8,7,14.6,5.5,15.2-2.7s-3.6-6-4.2-9.1-.2-11.5,1.8-14.8c4.3-7.4,12.8-5,19.8-4.7-1.1,10,1.5,23.2,0,32.8h-.2ZM52.4,77.8c-4.8,4.8,8.6,15.6,13.6,16.3,5.6.8,11.1-.3,14.3-5.5s.8-7.2,1.9-10.5,6.8-3.4,7.4-11.7c1.4-19.5-25.7-18.3-22.4,2.4.8,5.4,7.2,8.6,7.4,9.4.6,2.2,0,6.3-2.2,7.6-9.4,5.5-13.9-14-20-7.9h0Z"/>
        <path class="st0" d="M225.8,90.2c-1.1,11.9,4.9,33-10.7,32.9s-24.4,2.5-24.3-6,19.7-1.1,24.3-5.4.6-15.6.5-20.2c-10.1-5.3-14.9-18.9-5.7-27.6,18.3-17.3,40.7,17,15.9,26.3ZM219.7,69.4c-7.7,1.4-5.4,14,3.8,11.3s3.3-12.6-3.8-11.3Z"/>
        <path class="st0" d="M134.9,231.8c-.8.9-3,1.9-4.3,1.9h-66.5c-6.7-.9-8-11.7,0-11.7h67.3c4.4,0,5.9,6.8,3.4,9.8h.1Z"/>
        <path class="st0" d="M186.5,147.5c6.5-1.1,13.8,2.6,17,8.3,9.6,17.3-15.2,33.8-27.6,16.8-6.8-9.4-.6-23.3,10.6-25.1ZM189,157.5c-8.4.7-7.3,14.4,3,11.3s3.5-11.9-3-11.3Z"/>
        <path class="st0" d="M123.2,244.5c.6,7.2-7.5,12.1-11.3,13.7-7.7,3.4-21.8,3.2-29.4-.5-4.6-2.2-11.1-7.5-10.4-13.1"/>
        <path class="st1" d="M52.4,77.8c6-6,10.5,13.5,20,7.9,2.2-1.3,2.9-5.3,2.2-7.6s-6.6-4-7.4-9.4c-3.3-20.7,23.8-21.9,22.4-2.4-.6,8.3-6.6,9.3-7.4,11.7s.9,5.9-1.9,10.5-8.7,6.3-14.3,5.5c-5-.7-18.3-11.6-13.6-16.3h0Z"/>
        <path class="st1" d="M219.7,69.4c7-1.3,9.6,9.6,3.8,11.3-9.1,2.7-11.5-9.9-3.8-11.3Z"/>
        <path class="st1" d="M189,157.5c6.5-.6,8,9.8,3,11.3-10.2,3.1-11.3-10.6-3-11.3Z"/>
      </g>
    </g>
  </g>
</svg>